solid 1
 facet normal 0.704115 0.0649795 -0.707107
  outer loop
   vertex  65.3097  9.80801       22
   vertex  61.3266  9.44043       18
   vertex  64.6904  16.5185       22
  endloop
 endfacet
 facet normal 0.704115 0.0649792 -0.707107
  outer loop
   vertex  64.6904  16.5185       22
   vertex  61.3266  9.44043       18
   vertex  60.7074  16.1509       18
  endloop
 endfacet
 facet normal 0.995769 0.091895       -0
  outer loop
   vertex  65.3097  9.80801       22
   vertex  64.6904  16.5185       22
   vertex  65.3097  9.80801       29
  endloop
 endfacet
 facet normal 0.995769 0.091895        0
  outer loop
   vertex  65.3097  9.80801       29
   vertex  64.6904  16.5185       22
   vertex  64.6904  16.5185       29
  endloop
 endfacet
 facet normal -0.0918946 0.995769 -1.63888e-08
  outer loop
   vertex  58.9157  15.9855  26.0176
   vertex  64.6904  16.5185       29
   vertex  58.9836  15.9918     25.5
  endloop
 endfacet
 facet normal -0.0918946 0.995769        0
  outer loop
   vertex  58.9836  15.9918     25.5
   vertex  64.6904  16.5185       29
   vertex  64.6904  16.5185       22
  endloop
 endfacet
 facet normal -0.0918946 0.995769 1.63888e-08
  outer loop
   vertex  58.9836  15.9918     25.5
   vertex  64.6904  16.5185       22
   vertex  58.9157  15.9855  24.9824
  endloop
 endfacet
 facet normal -0.0918942 0.995769 8.48673e-07
  outer loop
   vertex  58.9157  15.9855  24.9824
   vertex  64.6904  16.5185       22
   vertex  58.7168  15.9672     24.5
  endloop
 endfacet
 facet normal -0.0918952 0.995769 -1.59258e-06
  outer loop
   vertex  58.7168  15.9672     24.5
   vertex  64.6904  16.5185       22
   vertex  58.4003   15.938  24.0858
  endloop
 endfacet
 facet normal -0.0918947 0.995769 4.05029e-08
  outer loop
   vertex  58.4003   15.938  24.0858
   vertex  64.6904  16.5185       22
   vertex  60.7074  16.1509       18
  endloop
 endfacet
 facet normal -0.0918948 0.995769 8.2863e-09
  outer loop
   vertex  58.4003   15.938  24.0858
   vertex  60.7074  16.1509       18
   vertex  57.9878  15.8999  23.7679
  endloop
 endfacet
 facet normal -0.0918931 0.995769 8.02914e-07
  outer loop
   vertex  57.9878  15.8999  23.7679
   vertex  60.7074  16.1509       18
   vertex  57.5075  15.8556  23.5681
  endloop
 endfacet
 facet normal -0.0918953 0.995769 -4.46484e-07
  outer loop
   vertex  57.5075  15.8556  23.5681
   vertex  60.7074  16.1509       18
   vertex  56.9921   15.808     23.5
  endloop
 endfacet
 facet normal -0.0918934 0.995769 8.32528e-07
  outer loop
   vertex  56.9921   15.808     23.5
   vertex  60.7074  16.1509       18
   vertex  56.4766  15.7605  23.5681
  endloop
 endfacet
 facet normal -0.0918945 0.995769 -5.30226e-08
  outer loop
   vertex  56.4766  15.7605  23.5681
   vertex  60.7074  16.1509       18
   vertex  49.2937  15.0976       18
  endloop
 endfacet
 facet normal -0.0918947 0.995769 1.30796e-07
  outer loop
   vertex  56.4766  15.7605  23.5681
   vertex  49.2937  15.0976       18
   vertex  55.9963  15.7161  23.7679
  endloop
 endfacet
 facet normal -0.0918947 0.995769 1.24354e-07
  outer loop
   vertex  55.9963  15.7161  23.7679
   vertex  49.2937  15.0976       18
   vertex  55.5838  15.6781  24.0858
  endloop
 endfacet
 facet normal -0.091894 0.995769 -5.90767e-07
  outer loop
   vertex  55.5838  15.6781  24.0858
   vertex  49.2937  15.0976       18
   vertex  55.2673  15.6489     24.5
  endloop
 endfacet
 facet normal -0.0918953 0.995769 6.55266e-07
  outer loop
   vertex  55.2673  15.6489     24.5
   vertex  49.2937  15.0976       18
   vertex  55.0684  15.6305  24.9824
  endloop
 endfacet
 facet normal -0.0918933 0.995769 -1.00237e-06
  outer loop
   vertex  55.0684  15.6305  24.9824
   vertex  49.2937  15.0976       18
   vertex  55.0005  15.6242     25.5
  endloop
 endfacet
 facet normal -0.0918946 0.995769        0
  outer loop
   vertex  55.0005  15.6242     25.5
   vertex  49.2937  15.0976       18
   vertex  49.2937  15.0976       33
  endloop
 endfacet
 facet normal -0.0918933 0.995769 1.00237e-06
  outer loop
   vertex  55.0005  15.6242     25.5
   vertex  49.2937  15.0976       33
   vertex  55.0684  15.6305  26.0176
  endloop
 endfacet
 facet normal -0.0918953 0.995769 -6.55266e-07
  outer loop
   vertex  55.0684  15.6305  26.0176
   vertex  49.2937  15.0976       33
   vertex  55.2673  15.6489     26.5
  endloop
 endfacet
 facet normal -0.091894 0.995769 5.90767e-07
  outer loop
   vertex  55.2673  15.6489     26.5
   vertex  49.2937  15.0976       33
   vertex  55.5838  15.6781  26.9142
  endloop
 endfacet
 facet normal -0.0918947 0.995769 -1.24354e-07
  outer loop
   vertex  55.5838  15.6781  26.9142
   vertex  49.2937  15.0976       33
   vertex  55.9963  15.7161  27.2321
  endloop
 endfacet
 facet normal -0.0918947 0.995769 -1.30796e-07
  outer loop
   vertex  55.9963  15.7161  27.2321
   vertex  49.2937  15.0976       33
   vertex  56.4766  15.7605  27.4319
  endloop
 endfacet
 facet normal -0.0918945 0.995769 5.30226e-08
  outer loop
   vertex  56.4766  15.7605  27.4319
   vertex  49.2937  15.0976       33
   vertex  60.7074  16.1509       33
  endloop
 endfacet
 facet normal -0.0918934 0.995769 -8.32528e-07
  outer loop
   vertex  56.4766  15.7605  27.4319
   vertex  60.7074  16.1509       33
   vertex  56.9921   15.808     27.5
  endloop
 endfacet
 facet normal -0.0918953 0.995769 4.46484e-07
  outer loop
   vertex  56.9921   15.808     27.5
   vertex  60.7074  16.1509       33
   vertex  57.5075  15.8556  27.4319
  endloop
 endfacet
 facet normal -0.0918931 0.995769 -8.02914e-07
  outer loop
   vertex  57.5075  15.8556  27.4319
   vertex  60.7074  16.1509       33
   vertex  57.9878  15.8999  27.2321
  endloop
 endfacet
 facet normal -0.0918948 0.995769 -8.2863e-09
  outer loop
   vertex  57.9878  15.8999  27.2321
   vertex  60.7074  16.1509       33
   vertex  58.4003   15.938  26.9142
  endloop
 endfacet
 facet normal -0.0918947 0.995769 -4.05029e-08
  outer loop
   vertex  58.4003   15.938  26.9142
   vertex  60.7074  16.1509       33
   vertex  64.6904  16.5185       29
  endloop
 endfacet
 facet normal -0.0918952 0.995769 1.59258e-06
  outer loop
   vertex  58.4003   15.938  26.9142
   vertex  64.6904  16.5185       29
   vertex  58.7168  15.9672     26.5
  endloop
 endfacet
 facet normal -0.0918942 0.995769 -8.48673e-07
  outer loop
   vertex  58.7168  15.9672     26.5
   vertex  64.6904  16.5185       29
   vertex  58.9157  15.9855  26.0176
  endloop
 endfacet
 facet normal 0.704115 0.0649795 0.707107
  outer loop
   vertex  65.3097  9.80801       29
   vertex  64.6904  16.5185       29
   vertex  61.3266  9.44043       33
  endloop
 endfacet
 facet normal 0.704115 0.0649792 0.707107
  outer loop
   vertex  61.3266  9.44043       33
   vertex  64.6904  16.5185       29
   vertex  60.7074  16.1509       33
  endloop
 endfacet
 facet normal 0.0918946 -0.995769 -6.46673e-08
  outer loop
   vertex  65.3097  9.80801       22
   vertex  59.0196  9.22752  24.0858
   vertex  61.3266  9.44043       18
  endloop
 endfacet
 facet normal 0.0918948 -0.995769 -8.2863e-09
  outer loop
   vertex  61.3266  9.44043       18
   vertex  59.0196  9.22752  24.0858
   vertex  58.6071  9.18946  23.7679
  endloop
 endfacet
 facet normal 0.0918937 -0.995769 -5.15236e-07
  outer loop
   vertex  61.3266  9.44043       18
   vertex  58.6071  9.18946  23.7679
   vertex  58.1268  9.14513  23.5681
  endloop
 endfacet
 facet normal 0.0918946 -0.995769        0
  outer loop
   vertex  65.3097  9.80801       29
   vertex  59.6029  9.28135     25.5
   vertex  65.3097  9.80801       22
  endloop
 endfacet
 facet normal 0.091895 -0.995769 6.1788e-07
  outer loop
   vertex  65.3097  9.80801       22
   vertex  59.6029  9.28135     25.5
   vertex   59.535  9.27509  24.9824
  endloop
 endfacet
 facet normal 0.0918942 -0.995769 -8.48673e-07
  outer loop
   vertex  65.3097  9.80801       22
   vertex   59.535  9.27509  24.9824
   vertex  59.3361  9.25673     24.5
  endloop
 endfacet
 facet normal 0.0918946 -0.995769 6.46673e-08
  outer loop
   vertex  61.3266  9.44043       33
   vertex  59.0196  9.22752  26.9142
   vertex  65.3097  9.80801       29
  endloop
 endfacet
 facet normal 0.091895 -0.995769 -9.51327e-07
  outer loop
   vertex  65.3097  9.80801       29
   vertex  59.0196  9.22752  26.9142
   vertex  59.3361  9.25673     26.5
  endloop
 endfacet
 facet normal 0.0918942 -0.995769 8.48673e-07
  outer loop
   vertex  65.3097  9.80801       29
   vertex  59.3361  9.25673     26.5
   vertex   59.535  9.27509  26.0176
  endloop
 endfacet
 facet normal 0.0918945 -0.995769 -1.17867e-07
  outer loop
   vertex  49.7241  8.36969       33
   vertex  57.0959  9.04999  27.4319
   vertex  61.3266  9.44043       33
  endloop
 endfacet
 facet normal 0.0918926 -0.995769 1.33698e-06
  outer loop
   vertex  61.3266  9.44043       33
   vertex  57.0959  9.04999  27.4319
   vertex  57.6113  9.09756     27.5
  endloop
 endfacet
 facet normal 0.0918946 -0.995769 -2.47421e-08
  outer loop
   vertex  61.3266  9.44043       33
   vertex  57.6113  9.09756     27.5
   vertex  58.1268  9.14513  27.4319
  endloop
 endfacet
 facet normal 0.0918944 -0.995769        0
  outer loop
   vertex  49.7241  8.36969       18
   vertex  55.6198  8.91377     25.5
   vertex  49.7241  8.36969       33
  endloop
 endfacet
 facet normal 0.0918952 -0.995769 5.89881e-07
  outer loop
   vertex  49.7241  8.36969       33
   vertex  55.6198  8.91377     25.5
   vertex  55.6877  8.92004  26.0176
  endloop
 endfacet
 facet normal 0.0918953 -0.995769 6.77327e-07
  outer loop
   vertex  49.7241  8.36969       33
   vertex  55.6877  8.92004  26.0176
   vertex  55.8866   8.9384     26.5
  endloop
 endfacet
 facet normal 0.0918945 -0.995769 1.17867e-07
  outer loop
   vertex  61.3266  9.44043       18
   vertex  57.0959  9.04999  23.5681
   vertex  49.7241  8.36969       18
  endloop
 endfacet
 facet normal 0.0918964 -0.995769 -2.40101e-06
  outer loop
   vertex  49.7241  8.36969       18
   vertex  57.0959  9.04999  23.5681
   vertex  56.6156  9.00567  23.7679
  endloop
 endfacet
 facet normal 0.0918946 -0.995769 -2.09805e-07
  outer loop
   vertex  49.7241  8.36969       18
   vertex  56.6156  9.00567  23.7679
   vertex  56.2031   8.9676  24.0858
  endloop
 endfacet
 facet normal 0.091895 -0.995769 9.51327e-07
  outer loop
   vertex  59.3361  9.25673     24.5
   vertex  59.0196  9.22752  24.0858
   vertex  65.3097  9.80801       22
  endloop
 endfacet
 facet normal 0.0918946 -0.995769 2.47421e-08
  outer loop
   vertex  58.1268  9.14513  23.5681
   vertex  57.6113  9.09756     23.5
   vertex  61.3266  9.44043       18
  endloop
 endfacet
 facet normal 0.0918926 -0.995769 -1.33698e-06
  outer loop
   vertex  61.3266  9.44043       18
   vertex  57.6113  9.09756     23.5
   vertex  57.0959  9.04999  23.5681
  endloop
 endfacet
 facet normal 0.0918931 -0.995769 1.37676e-06
  outer loop
   vertex  56.2031   8.9676  24.0858
   vertex  55.8866   8.9384     24.5
   vertex  49.7241  8.36969       18
  endloop
 endfacet
 facet normal 0.0918953 -0.995769 -6.77327e-07
  outer loop
   vertex  49.7241  8.36969       18
   vertex  55.8866   8.9384     24.5
   vertex  55.6877  8.92004  24.9824
  endloop
 endfacet
 facet normal 0.0918952 -0.995769 -5.89881e-07
  outer loop
   vertex  49.7241  8.36969       18
   vertex  55.6877  8.92004  24.9824
   vertex  55.6198  8.91377     25.5
  endloop
 endfacet
 facet normal 0.0918931 -0.995769 -1.37676e-06
  outer loop
   vertex  55.8866   8.9384     26.5
   vertex  56.2031   8.9676  26.9142
   vertex  49.7241  8.36969       33
  endloop
 endfacet
 facet normal 0.0918946 -0.995769 2.09805e-07
  outer loop
   vertex  49.7241  8.36969       33
   vertex  56.2031   8.9676  26.9142
   vertex  56.6156  9.00567  27.2321
  endloop
 endfacet
 facet normal 0.0918964 -0.995769 2.40101e-06
  outer loop
   vertex  49.7241  8.36969       33
   vertex  56.6156  9.00567  27.2321
   vertex  57.0959  9.04999  27.4319
  endloop
 endfacet
 facet normal 0.0918937 -0.995769 5.15236e-07
  outer loop
   vertex  58.1268  9.14513  27.4319
   vertex  58.6071  9.18946  27.2321
   vertex  61.3266  9.44043       33
  endloop
 endfacet
 facet normal 0.0918948 -0.995769 8.2863e-09
  outer loop
   vertex  61.3266  9.44043       33
   vertex  58.6071  9.18946  27.2321
   vertex  59.0196  9.22752  26.9142
  endloop
 endfacet
 facet normal 0.091895 -0.995769 -6.1788e-07
  outer loop
   vertex   59.535  9.27509  26.0176
   vertex  59.6029  9.28135     25.5
   vertex  65.3097  9.80801       29
  endloop
 endfacet
 facet normal        0        0        1
  outer loop
   vertex  60.7074  16.1509       33
   vertex  49.2937  15.0976       33
   vertex  61.3266  9.44043       33
  endloop
 endfacet
 facet normal        0        0        1
  outer loop
   vertex  61.3266  9.44043       33
   vertex  49.2937  15.0976       33
   vertex  49.7241  8.36969       33
  endloop
 endfacet
 facet normal        0        0        1
  outer loop
   vertex  49.7241  8.36969       33
   vertex  49.2937  15.0976       33
   vertex  24.9615  43.5558       33
  endloop
 endfacet
 facet normal       -0        0        1
  outer loop
   vertex  24.9615  43.5558       33
   vertex  49.2937  15.0976       33
   vertex  27.3951  46.2142       33
  endloop
 endfacet
 facet normal        0       -0        1
  outer loop
   vertex  24.9615  43.5558       33
   vertex  27.3951  46.2142       33
   vertex  22.4801  44.8782       33
  endloop
 endfacet
 facet normal        0        0        1
  outer loop
   vertex  22.4801  44.8782       33
   vertex  27.3951  46.2142       33
   vertex  24.2869  47.9102       33
  endloop
 endfacet
 facet normal        0       -0        1
  outer loop
   vertex  22.4801  44.8782       33
   vertex  24.2869  47.9102       33
   vertex  19.9289  46.0605       33
  endloop
 endfacet
 facet normal        0       -0        1
  outer loop
   vertex  19.9289  46.0605       33
   vertex  24.2869  47.9102       33
   vertex  17.3158  47.0989       33
  endloop
 endfacet
 facet normal        0        0        1
  outer loop
   vertex  17.3158  47.0989       33
   vertex  24.2869  47.9102       33
   vertex  21.0742   49.399       33
  endloop
 endfacet
 facet normal        0        0        1
  outer loop
   vertex  17.3158  47.0989       33
   vertex  21.0742   49.399       33
   vertex   17.771  50.6741       33
  endloop
 endfacet
 facet normal        0        0        1
  outer loop
   vertex   17.771  50.6741       33
   vertex -26.6229  46.6837       33
   vertex  17.3158  47.0989       33
  endloop
 endfacet
 facet normal        0        0        1
  outer loop
   vertex  17.3158  47.0989       33
   vertex -26.6229  46.6837       33
   vertex -25.5375   43.247       33
  endloop
 endfacet
 facet normal        0        0        1
  outer loop
   vertex -25.5375   43.247       33
   vertex -26.6229  46.6837       33
   vertex -29.6459    44.84       33
  endloop
 endfacet
 facet normal        0        0        1
  outer loop
   vertex -25.5375   43.247       33
   vertex -29.6459    44.84       33
   vertex -32.5415  42.8021       33
  endloop
 endfacet
 facet normal       -0        0        1
  outer loop
   vertex -35.2975   40.579       33
   vertex  -30.223  40.1409       33
   vertex -32.5415  42.8021       33
  endloop
 endfacet
 facet normal        0        0        1
  outer loop
   vertex -32.5415  42.8021       33
   vertex  -30.223  40.1409       33
   vertex -27.9235  41.7592       33
  endloop
 endfacet
 facet normal       -0        0        1
  outer loop
   vertex -32.5415  42.8021       33
   vertex -27.9235  41.7592       33
   vertex -25.5375   43.247       33
  endloop
 endfacet
 facet normal        0        0        1
  outer loop
   vertex  -30.223  40.1409       33
   vertex -35.2975   40.579       33
   vertex -32.4288  38.3972       33
  endloop
 endfacet
 facet normal        0        0        1
  outer loop
   vertex -32.4288  38.3972       33
   vertex -35.2975   40.579       33
   vertex -51.2959  6.05595       33
  endloop
 endfacet
 facet normal        0        0        1
  outer loop
   vertex -32.4288  38.3972       33
   vertex -51.2959  6.05595       33
   vertex -50.5196 -0.640851       33
  endloop
 endfacet
 facet normal        0        0        1
  outer loop
   vertex -50.5196 -0.640851       33
   vertex -51.2959  6.05595       33
   vertex -62.7145  5.05695       33
  endloop
 endfacet
 facet normal        0        0        1
  outer loop
   vertex -50.5196 -0.640851       33
   vertex -62.7145  5.05695       33
   vertex -62.1272 -1.65638       33
  endloop
 endfacet
 facet normal -0.704416 -0.0616285 -0.707107
  outer loop
   vertex -66.6993  4.70833       22
   vertex -62.7145  5.05695       18
   vertex -66.1119   -2.005       22
  endloop
 endfacet
 facet normal -0.704416 -0.0616285 -0.707107
  outer loop
   vertex -66.1119   -2.005       22
   vertex -62.7145  5.05695       18
   vertex -62.1272 -1.65638       18
  endloop
 endfacet
 facet normal -0.0871544 0.996195 -1.00294e-06
  outer loop
   vertex -56.7337   5.5802  26.0176
   vertex -51.2959  6.05595       33
   vertex -56.6659  5.58614     25.5
  endloop
 endfacet
 facet normal -0.0871558 0.996195        0
  outer loop
   vertex -56.6659  5.58614     25.5
   vertex -51.2959  6.05595       33
   vertex -51.2959  6.05595       18
  endloop
 endfacet
 facet normal -0.0871544 0.996195 1.00294e-06
  outer loop
   vertex -56.6659  5.58614     25.5
   vertex -51.2959  6.05595       18
   vertex -56.7337   5.5802  24.9824
  endloop
 endfacet
 facet normal -0.0871558 0.996195 -1.02004e-07
  outer loop
   vertex -56.7337   5.5802  24.9824
   vertex -51.2959  6.05595       18
   vertex -56.9328  5.56279     24.5
  endloop
 endfacet
 facet normal -0.0871567 0.996195 -8.90337e-07
  outer loop
   vertex -56.9328  5.56279     24.5
   vertex -51.2959  6.05595       18
   vertex -57.2494  5.53508  24.0858
  endloop
 endfacet
 facet normal -0.087156 0.996195 -2.26119e-07
  outer loop
   vertex -57.2494  5.53508  24.0858
   vertex -51.2959  6.05595       18
   vertex -57.6621  5.49898  23.7679
  endloop
 endfacet
 facet normal -0.0871557 0.996195 2.02009e-07
  outer loop
   vertex -57.6621  5.49898  23.7679
   vertex -51.2959  6.05595       18
   vertex -58.1426  5.45694  23.5681
  endloop
 endfacet
 facet normal -0.0871558 0.996195 6.2603e-08
  outer loop
   vertex -58.1426  5.45694  23.5681
   vertex -51.2959  6.05595       18
   vertex -62.7145  5.05695       18
  endloop
 endfacet
 facet normal -0.0871543 0.996195 -1.17343e-06
  outer loop
   vertex -58.1426  5.45694  23.5681
   vertex -62.7145  5.05695       18
   vertex -58.6583  5.41183     23.5
  endloop
 endfacet
 facet normal -0.0871562 0.996195 2.73036e-07
  outer loop
   vertex -58.6583  5.41183     23.5
   vertex -62.7145  5.05695       18
   vertex -59.1739  5.36671  23.5681
  endloop
 endfacet
 facet normal -0.0871558 0.996195 3.65768e-08
  outer loop
   vertex -59.1739  5.36671  23.5681
   vertex -62.7145  5.05695       18
   vertex -59.6545  5.32467  23.7679
  endloop
 endfacet
 facet normal -0.0871567 0.996195 4.66741e-07
  outer loop
   vertex -59.6545  5.32467  23.7679
   vertex -62.7145  5.05695       18
   vertex -60.0671  5.28857  24.0858
  endloop
 endfacet
 facet normal -0.0871557 0.996195 2.9977e-08
  outer loop
   vertex -60.0671  5.28857  24.0858
   vertex -62.7145  5.05695       18
   vertex -66.6993  4.70833       22
  endloop
 endfacet
 facet normal -0.0871552 0.996195 -1.39518e-06
  outer loop
   vertex -60.0671  5.28857  24.0858
   vertex -66.6993  4.70833       22
   vertex -60.3837  5.26087     24.5
  endloop
 endfacet
 facet normal -0.0871558 0.996195 1.05242e-07
  outer loop
   vertex -60.3837  5.26087     24.5
   vertex -66.6993  4.70833       22
   vertex -60.5828  5.24345  24.9824
  endloop
 endfacet
 facet normal -0.087156 0.996195 6.14771e-07
  outer loop
   vertex -60.5828  5.24345  24.9824
   vertex -66.6993  4.70833       22
   vertex -60.6507  5.23751     25.5
  endloop
 endfacet
 facet normal -0.0871557 0.996195        0
  outer loop
   vertex -60.6507  5.23751     25.5
   vertex -66.6993  4.70833       22
   vertex -66.6993  4.70833       29
  endloop
 endfacet
 facet normal -0.087156 0.996195 -6.14771e-07
  outer loop
   vertex -60.6507  5.23751     25.5
   vertex -66.6993  4.70833       29
   vertex -60.5828  5.24345  26.0176
  endloop
 endfacet
 facet normal -0.0871558 0.996195 -1.05242e-07
  outer loop
   vertex -60.5828  5.24345  26.0176
   vertex -66.6993  4.70833       29
   vertex -60.3837  5.26087     26.5
  endloop
 endfacet
 facet normal -0.0871552 0.996195 1.39518e-06
  outer loop
   vertex -60.3837  5.26087     26.5
   vertex -66.6993  4.70833       29
   vertex -60.0671  5.28857  26.9142
  endloop
 endfacet
 facet normal -0.0871557 0.996195 -2.9977e-08
  outer loop
   vertex -60.0671  5.28857  26.9142
   vertex -66.6993  4.70833       29
   vertex -62.7145  5.05695       33
  endloop
 endfacet
 facet normal -0.0871567 0.996195 -4.66741e-07
  outer loop
   vertex -60.0671  5.28857  26.9142
   vertex -62.7145  5.05695       33
   vertex -59.6545  5.32467  27.2321
  endloop
 endfacet
 facet normal -0.0871558 0.996195 -3.65768e-08
  outer loop
   vertex -59.6545  5.32467  27.2321
   vertex -62.7145  5.05695       33
   vertex -59.1739  5.36671  27.4319
  endloop
 endfacet
 facet normal -0.0871562 0.996195 -2.73036e-07
  outer loop
   vertex -59.1739  5.36671  27.4319
   vertex -62.7145  5.05695       33
   vertex -58.6583  5.41183     27.5
  endloop
 endfacet
 facet normal -0.0871543 0.996195 1.17343e-06
  outer loop
   vertex -58.6583  5.41183     27.5
   vertex -62.7145  5.05695       33
   vertex -58.1426  5.45694  27.4319
  endloop
 endfacet
 facet normal -0.0871558 0.996195 -6.2603e-08
  outer loop
   vertex -58.1426  5.45694  27.4319
   vertex -62.7145  5.05695       33
   vertex -51.2959  6.05595       33
  endloop
 endfacet
 facet normal -0.0871557 0.996195 -2.02009e-07
  outer loop
   vertex -58.1426  5.45694  27.4319
   vertex -51.2959  6.05595       33
   vertex -57.6621  5.49898  27.2321
  endloop
 endfacet
 facet normal -0.087156 0.996195 2.26119e-07
  outer loop
   vertex -57.6621  5.49898  27.2321
   vertex -51.2959  6.05595       33
   vertex -57.2494  5.53508  26.9142
  endloop
 endfacet
 facet normal -0.0871567 0.996195 8.90337e-07
  outer loop
   vertex -57.2494  5.53508  26.9142
   vertex -51.2959  6.05595       33
   vertex -56.9328  5.56279     26.5
  endloop
 endfacet
 facet normal -0.0871558 0.996195 1.02004e-07
  outer loop
   vertex -56.9328  5.56279     26.5
   vertex -51.2959  6.05595       33
   vertex -56.7337   5.5802  26.0176
  endloop
 endfacet
 facet normal -0.996195 -0.0871559        0
  outer loop
   vertex -66.6993  4.70833       22
   vertex -66.1119   -2.005       22
   vertex -66.6993  4.70833       29
  endloop
 endfacet
 facet normal -0.996195 -0.0871559        0
  outer loop
   vertex -66.6993  4.70833       29
   vertex -66.1119   -2.005       22
   vertex -66.1119   -2.005       29
  endloop
 endfacet
 facet normal -0.704416 -0.0616285 0.707107
  outer loop
   vertex -66.1119   -2.005       29
   vertex -62.1272 -1.65638       33
   vertex -66.6993  4.70833       29
  endloop
 endfacet
 facet normal -0.704416 -0.0616285 0.707107
  outer loop
   vertex -66.6993  4.70833       29
   vertex -62.1272 -1.65638       33
   vertex -62.7145  5.05695       33
  endloop
 endfacet
 facet normal 0.00894417 0.000770477  0.99996
  outer loop
   vertex -58.0909 -1.30325  23.5001
   vertex -58.6583  5.41183     23.5
   vertex -58.6695  5.13419  23.5003
  endloop
 endfacet
 facet normal 0.131374 -0.00420848 0.991324
  outer loop
   vertex -58.6695  5.13419  23.5003
   vertex -58.6583  5.41183     23.5
   vertex -59.1739  5.36671  23.5681
  endloop
 endfacet
 facet normal 0.144843 0.0256524 0.989122
  outer loop
   vertex -58.6695  5.13419  23.5003
   vertex -59.1739  5.36671  23.5681
   vertex -59.1781  5.08726   23.576
  endloop
 endfacet
 facet normal 0.382329 0.0203161 0.923803
  outer loop
   vertex -59.1781  5.08726   23.576
   vertex -59.1739  5.36671  23.5681
   vertex -59.6545  5.32467  23.7679
  endloop
 endfacet
 facet normal  0.39245 0.0447652 0.918683
  outer loop
   vertex -59.1781  5.08726   23.576
   vertex -59.6545  5.32467  23.7679
   vertex -59.6504  5.04368  23.7799
  endloop
 endfacet
 facet normal 0.607326 0.0425954  0.79331
  outer loop
   vertex -59.6504  5.04368  23.7799
   vertex -59.6545  5.32467  23.7679
   vertex -60.0671  5.28857  24.0858
  endloop
 endfacet
 facet normal 0.613849 0.0615534  0.78702
  outer loop
   vertex -59.6504  5.04368  23.7799
   vertex -60.0671  5.28857  24.0858
   vertex -60.0549  5.00634  24.0984
  endloop
 endfacet
 facet normal 0.790997 0.0612483 0.608747
  outer loop
   vertex -60.0549  5.00634  24.0984
   vertex -60.0671  5.28857  24.0858
   vertex -60.3837  5.26087     24.5
  endloop
 endfacet
 facet normal 0.794309 0.0747572 0.602897
  outer loop
   vertex -60.0549  5.00634  24.0984
   vertex -60.3837  5.26087     24.5
   vertex -60.3649  4.97774  24.5102
  endloop
 endfacet
 facet normal 0.920813 0.0752211 0.382682
  outer loop
   vertex -60.3649  4.97774  24.5102
   vertex -60.3837  5.26087     24.5
   vertex -60.5828  5.24345  24.9824
  endloop
 endfacet
 facet normal 0.921807 0.0833029 0.378592
  outer loop
   vertex -60.3649  4.97774  24.5102
   vertex -60.5828  5.24345  24.9824
   vertex -60.5595  4.95978  24.9881
  endloop
 endfacet
 facet normal 0.987902 0.0837412 0.130528
  outer loop
   vertex -60.5595  4.95978  24.9881
   vertex -60.5828  5.24345  24.9824
   vertex -60.6507  5.23751     25.5
  endloop
 endfacet
 facet normal 0.987863 0.0864241 0.129066
  outer loop
   vertex -60.5595  4.95978  24.9881
   vertex -60.6507  5.23751     25.5
   vertex -60.6258  4.95365     25.5
  endloop
 endfacet
 facet normal 0.987863 0.0864241 -0.129066
  outer loop
   vertex -60.6258  4.95365     25.5
   vertex -60.6507  5.23751     25.5
   vertex -60.5595  4.95978  26.0119
  endloop
 endfacet
 facet normal 0.987902 0.0837412 -0.130528
  outer loop
   vertex -60.5595  4.95978  26.0119
   vertex -60.6507  5.23751     25.5
   vertex -60.5828  5.24345  26.0176
  endloop
 endfacet
 facet normal 0.921807 0.0833029 -0.378592
  outer loop
   vertex -60.5595  4.95978  26.0119
   vertex -60.5828  5.24345  26.0176
   vertex -60.3649  4.97774  26.4898
  endloop
 endfacet
 facet normal 0.920813 0.0752211 -0.382682
  outer loop
   vertex -60.3649  4.97774  26.4898
   vertex -60.5828  5.24345  26.0176
   vertex -60.3837  5.26087     26.5
  endloop
 endfacet
 facet normal 0.794309 0.0747572 -0.602897
  outer loop
   vertex -60.3649  4.97774  26.4898
   vertex -60.3837  5.26087     26.5
   vertex -60.0549  5.00634  26.9016
  endloop
 endfacet
 facet normal 0.790997 0.0612483 -0.608747
  outer loop
   vertex -60.0549  5.00634  26.9016
   vertex -60.3837  5.26087     26.5
   vertex -60.0671  5.28857  26.9142
  endloop
 endfacet
 facet normal 0.613849 0.0615534 -0.78702
  outer loop
   vertex -60.0549  5.00634  26.9016
   vertex -60.0671  5.28857  26.9142
   vertex -59.6504  5.04368  27.2201
  endloop
 endfacet
 facet normal 0.607326 0.0425954 -0.79331
  outer loop
   vertex -59.6504  5.04368  27.2201
   vertex -60.0671  5.28857  26.9142
   vertex -59.6545  5.32467  27.2321
  endloop
 endfacet
 facet normal  0.39245 0.0447652 -0.918683
  outer loop
   vertex -59.6504  5.04368  27.2201
   vertex -59.6545  5.32467  27.2321
   vertex -59.1781  5.08726   27.424
  endloop
 endfacet
 facet normal 0.382329 0.0203161 -0.923803
  outer loop
   vertex -59.1781  5.08726   27.424
   vertex -59.6545  5.32467  27.2321
   vertex -59.1739  5.36671  27.4319
  endloop
 endfacet
 facet normal 0.144843 0.0256524 -0.989122
  outer loop
   vertex -59.1781  5.08726   27.424
   vertex -59.1739  5.36671  27.4319
   vertex -58.6695  5.13419  27.4997
  endloop
 endfacet
 facet normal 0.131374 -0.00420848 -0.991324
  outer loop
   vertex -58.6695  5.13419  27.4997
   vertex -59.1739  5.36671  27.4319
   vertex -58.6583  5.41183     27.5
  endloop
 endfacet
 facet normal 0.00894417 0.000770477 -0.99996
  outer loop
   vertex -58.6695  5.13419  27.4997
   vertex -58.6583  5.41183     27.5
   vertex -58.0909 -1.30325  27.4999
  endloop
 endfacet
 facet normal -0.110954 -0.00936003 -0.993781
  outer loop
   vertex -58.0909 -1.30325  27.4999
   vertex -58.6583  5.41183     27.5
   vertex -57.6105 -1.26123  27.4459
  endloop
 endfacet
 facet normal -0.129941 -0.01236 -0.991445
  outer loop
   vertex -57.6105 -1.26123  27.4459
   vertex -58.6583  5.41183     27.5
   vertex -58.1426  5.45694  27.4319
  endloop
 endfacet
 facet normal -0.346138 -0.0293699 -0.937724
  outer loop
   vertex -57.6105 -1.26123  27.4459
   vertex -58.1426  5.45694  27.4319
   vertex -57.1573 -1.22157  27.2773
  endloop
 endfacet
 facet normal -0.381093 -0.0348474 -0.92388
  outer loop
   vertex -57.1573 -1.22157  27.2773
   vertex -58.1426  5.45694  27.4319
   vertex -57.6621  5.49898  27.2321
  endloop
 endfacet
 facet normal -0.560949 -0.0477006 -0.826475
  outer loop
   vertex -57.1573 -1.22157  27.2773
   vertex -57.6621  5.49898  27.2321
   vertex -56.7578 -1.18662  27.0042
  endloop
 endfacet
 facet normal -0.606273 -0.0549601 -0.793355
  outer loop
   vertex -56.7578 -1.18662  27.0042
   vertex -57.6621  5.49898  27.2321
   vertex -57.2494  5.53508  26.9142
  endloop
 endfacet
 facet normal -0.742745 -0.0632455 -0.666581
  outer loop
   vertex -56.7578 -1.18662  27.0042
   vertex -57.2494  5.53508  26.9142
   vertex -56.4356 -1.15843  26.6425
  endloop
 endfacet
 facet normal -0.790136 -0.0713547 -0.608765
  outer loop
   vertex -56.4356 -1.15843  26.6425
   vertex -57.2494  5.53508  26.9142
   vertex -56.9328  5.56279     26.5
  endloop
 endfacet
 facet normal -0.880823 -0.0750682 -0.467456
  outer loop
   vertex -56.4356 -1.15843  26.6425
   vertex -56.9328  5.56279     26.5
   vertex -56.2096 -1.13866  26.2135
  endloop
 endfacet
 facet normal -0.920148 -0.0829354 -0.382686
  outer loop
   vertex -56.2096 -1.13866  26.2135
   vertex -56.9328  5.56279     26.5
   vertex -56.7337   5.5802  26.0176
  endloop
 endfacet
 facet normal -0.967062 -0.0824586 -0.240816
  outer loop
   vertex -56.2096 -1.13866  26.2135
   vertex -56.7337   5.5802  26.0176
   vertex -56.0932 -1.12848  25.7426
  endloop
 endfacet
 facet normal -0.987448 -0.0889265 -0.130528
  outer loop
   vertex -56.0932 -1.12848  25.7426
   vertex -56.7337   5.5802  26.0176
   vertex -56.6659  5.58614     25.5
  endloop
 endfacet
 facet normal -0.996383 -0.0849724       -0
  outer loop
   vertex -56.0932 -1.12848  25.7426
   vertex -56.6659  5.58614     25.5
   vertex -56.0932 -1.12848  25.2574
  endloop
 endfacet
 facet normal -0.987448 -0.0889265 0.130528
  outer loop
   vertex -56.0932 -1.12848  25.2574
   vertex -56.6659  5.58614     25.5
   vertex -56.7337   5.5802  24.9824
  endloop
 endfacet
 facet normal -0.967062 -0.0824586 0.240816
  outer loop
   vertex -56.0932 -1.12848  25.2574
   vertex -56.7337   5.5802  24.9824
   vertex -56.2096 -1.13866  24.7865
  endloop
 endfacet
 facet normal -0.920148 -0.0829354 0.382686
  outer loop
   vertex -56.2096 -1.13866  24.7865
   vertex -56.7337   5.5802  24.9824
   vertex -56.9328  5.56279     24.5
  endloop
 endfacet
 facet normal -0.880823 -0.0750682 0.467456
  outer loop
   vertex -56.2096 -1.13866  24.7865
   vertex -56.9328  5.56279     24.5
   vertex -56.4356 -1.15843  24.3575
  endloop
 endfacet
 facet normal -0.790136 -0.0713547 0.608765
  outer loop
   vertex -56.4356 -1.15843  24.3575
   vertex -56.9328  5.56279     24.5
   vertex -57.2494  5.53508  24.0858
  endloop
 endfacet
 facet normal -0.742745 -0.0632455 0.666581
  outer loop
   vertex -56.4356 -1.15843  24.3575
   vertex -57.2494  5.53508  24.0858
   vertex -56.7578 -1.18662  23.9958
  endloop
 endfacet
 facet normal -0.606273 -0.0549601 0.793355
  outer loop
   vertex -56.7578 -1.18662  23.9958
   vertex -57.2494  5.53508  24.0858
   vertex -57.6621  5.49898  23.7679
  endloop
 endfacet
 facet normal -0.560949 -0.0477006 0.826475
  outer loop
   vertex -56.7578 -1.18662  23.9958
   vertex -57.6621  5.49898  23.7679
   vertex -57.1573 -1.22157  23.7227
  endloop
 endfacet
 facet normal -0.381093 -0.0348474  0.92388
  outer loop
   vertex -57.1573 -1.22157  23.7227
   vertex -57.6621  5.49898  23.7679
   vertex -58.1426  5.45694  23.5681
  endloop
 endfacet
 facet normal -0.346138 -0.0293699 0.937724
  outer loop
   vertex -57.1573 -1.22157  23.7227
   vertex -58.1426  5.45694  23.5681
   vertex -57.6105 -1.26123  23.5541
  endloop
 endfacet
 facet normal -0.129941 -0.01236 0.991445
  outer loop
   vertex -57.6105 -1.26123  23.5541
   vertex -58.1426  5.45694  23.5681
   vertex -58.6583  5.41183     23.5
  endloop
 endfacet
 facet normal -0.110954 -0.00936003 0.993781
  outer loop
   vertex -57.6105 -1.26123  23.5541
   vertex -58.6583  5.41183     23.5
   vertex -58.0909 -1.30325  23.5001
  endloop
 endfacet
 facet normal 0.0871558 -0.996195 2.95183e-08
  outer loop
   vertex -62.1272 -1.65638       18
   vertex  -59.424 -1.41988  23.9958
   vertex -66.1119   -2.005       22
  endloop
 endfacet
 facet normal 0.0871565 -0.996195 -2.36676e-06
  outer loop
   vertex -66.1119   -2.005       22
   vertex  -59.424 -1.41988  23.9958
   vertex -59.7462 -1.44807  24.3575
  endloop
 endfacet
 facet normal 0.0871555 -0.996195 4.33183e-07
  outer loop
   vertex -66.1119   -2.005       22
   vertex -59.7462 -1.44807  24.3575
   vertex -59.9722 -1.46784  24.7865
  endloop
 endfacet
 facet normal 0.0871558 -0.996195 -7.3644e-08
  outer loop
   vertex -50.5196 -0.640851       18
   vertex -57.6105 -1.26123  23.5541
   vertex -62.1272 -1.65638       18
  endloop
 endfacet
 facet normal 0.0871553 -0.996195 2.68263e-07
  outer loop
   vertex -62.1272 -1.65638       18
   vertex -57.6105 -1.26123  23.5541
   vertex -58.0909 -1.30325  23.5001
  endloop
 endfacet
 facet normal 0.0871554 -0.996195 2.27356e-07
  outer loop
   vertex -62.1272 -1.65638       18
   vertex -58.0909 -1.30325  23.5001
   vertex -58.5713 -1.34528  23.5541
  endloop
 endfacet
 facet normal 0.0871558 -0.996195        0
  outer loop
   vertex -50.5196 -0.640851       33
   vertex -56.0932 -1.12848  25.2574
   vertex -50.5196 -0.640851       18
  endloop
 endfacet
 facet normal 0.087156 -0.996195 1.60956e-07
  outer loop
   vertex -50.5196 -0.640851       18
   vertex -56.0932 -1.12848  25.2574
   vertex -56.2096 -1.13866  24.7865
  endloop
 endfacet
 facet normal 0.0871553 -0.996195 -3.7341e-07
  outer loop
   vertex -50.5196 -0.640851       18
   vertex -56.2096 -1.13866  24.7865
   vertex -56.4356 -1.15843  24.3575
  endloop
 endfacet
 facet normal 0.0871558 -0.996195 7.3644e-08
  outer loop
   vertex -62.1272 -1.65638       33
   vertex -57.6105 -1.26123  27.4459
   vertex -50.5196 -0.640851       33
  endloop
 endfacet
 facet normal 0.0871562 -0.996195 -4.59935e-07
  outer loop
   vertex -50.5196 -0.640851       33
   vertex -57.6105 -1.26123  27.4459
   vertex -57.1573 -1.22157  27.2773
  endloop
 endfacet
 facet normal 0.0871559 -0.996195 -1.28594e-07
  outer loop
   vertex -50.5196 -0.640851       33
   vertex -57.1573 -1.22157  27.2773
   vertex -56.7578 -1.18662  27.0042
  endloop
 endfacet
 facet normal 0.0871558 -0.996195 -2.95183e-08
  outer loop
   vertex -66.1119   -2.005       29
   vertex  -59.424 -1.41988  27.0042
   vertex -62.1272 -1.65638       33
  endloop
 endfacet
 facet normal 0.0871541 -0.996195 -7.72774e-07
  outer loop
   vertex -62.1272 -1.65638       33
   vertex  -59.424 -1.41988  27.0042
   vertex -59.0245 -1.38493  27.2773
  endloop
 endfacet
 facet normal 0.0871568 -0.996195 6.8883e-07
  outer loop
   vertex -62.1272 -1.65638       33
   vertex -59.0245 -1.38493  27.2773
   vertex -58.5713 -1.34528  27.4459
  endloop
 endfacet
 facet normal 0.0871558 -0.996195        0
  outer loop
   vertex -66.1119   -2.005       22
   vertex -60.0886 -1.47802  25.2574
   vertex -66.1119   -2.005       29
  endloop
 endfacet
 facet normal 0.0871558 -0.996195        0
  outer loop
   vertex -66.1119   -2.005       29
   vertex -60.0886 -1.47802  25.2574
   vertex -60.0886 -1.47802  25.7426
  endloop
 endfacet
 facet normal 0.0871549 -0.996195 -1.59645e-06
  outer loop
   vertex -66.1119   -2.005       29
   vertex -60.0886 -1.47802  25.7426
   vertex -59.9722 -1.46784  26.2135
  endloop
 endfacet
 facet normal 0.0871554 -0.996195 -2.27356e-07
  outer loop
   vertex -58.5713 -1.34528  27.4459
   vertex -58.0909 -1.30325  27.4999
   vertex -62.1272 -1.65638       33
  endloop
 endfacet
 facet normal 0.0871553 -0.996195 -2.68263e-07
  outer loop
   vertex -62.1272 -1.65638       33
   vertex -58.0909 -1.30325  27.4999
   vertex -57.6105 -1.26123  27.4459
  endloop
 endfacet
 facet normal 0.087156 -0.996195 -2.08158e-07
  outer loop
   vertex -56.7578 -1.18662  27.0042
   vertex -56.4356 -1.15843  26.6425
   vertex -50.5196 -0.640851       33
  endloop
 endfacet
 facet normal 0.0871553 -0.996195 3.7341e-07
  outer loop
   vertex -50.5196 -0.640851       33
   vertex -56.4356 -1.15843  26.6425
   vertex -56.2096 -1.13866  26.2135
  endloop
 endfacet
 facet normal 0.087156 -0.996195 -1.60956e-07
  outer loop
   vertex -50.5196 -0.640851       33
   vertex -56.2096 -1.13866  26.2135
   vertex -56.0932 -1.12848  25.7426
  endloop
 endfacet
 facet normal 0.0871558 -0.996195        0
  outer loop
   vertex -56.0932 -1.12848  25.7426
   vertex -56.0932 -1.12848  25.2574
   vertex -50.5196 -0.640851       33
  endloop
 endfacet
 facet normal 0.087156 -0.996195 2.08158e-07
  outer loop
   vertex -56.4356 -1.15843  24.3575
   vertex -56.7578 -1.18662  23.9958
   vertex -50.5196 -0.640851       18
  endloop
 endfacet
 facet normal 0.0871559 -0.996195 1.28594e-07
  outer loop
   vertex -50.5196 -0.640851       18
   vertex -56.7578 -1.18662  23.9958
   vertex -57.1573 -1.22157  23.7227
  endloop
 endfacet
 facet normal 0.0871562 -0.996195 4.59935e-07
  outer loop
   vertex -50.5196 -0.640851       18
   vertex -57.1573 -1.22157  23.7227
   vertex -57.6105 -1.26123  23.5541
  endloop
 endfacet
 facet normal 0.0871568 -0.996195 -6.8883e-07
  outer loop
   vertex -58.5713 -1.34528  23.5541
   vertex -59.0245 -1.38493  23.7227
   vertex -62.1272 -1.65638       18
  endloop
 endfacet
 facet normal 0.0871541 -0.996195 7.72774e-07
  outer loop
   vertex -62.1272 -1.65638       18
   vertex -59.0245 -1.38493  23.7227
   vertex  -59.424 -1.41988  23.9958
  endloop
 endfacet
 facet normal 0.0871549 -0.996195 1.59645e-06
  outer loop
   vertex -59.9722 -1.46784  24.7865
   vertex -60.0886 -1.47802  25.2574
   vertex -66.1119   -2.005       22
  endloop
 endfacet
 facet normal 0.0871555 -0.996195 -4.33183e-07
  outer loop
   vertex -59.9722 -1.46784  26.2135
   vertex -59.7462 -1.44807  26.6425
   vertex -66.1119   -2.005       29
  endloop
 endfacet
 facet normal 0.0871565 -0.996195 2.36676e-06
  outer loop
   vertex -66.1119   -2.005       29
   vertex -59.7462 -1.44807  26.6425
   vertex  -59.424 -1.41988  27.0042
  endloop
 endfacet
 facet normal 0.103872 0.00930338 -0.994547
  outer loop
   vertex -58.6695  5.13419  27.4997
   vertex -58.0909 -1.30325  27.4999
   vertex -59.1524  5.08963  27.4488
  endloop
 endfacet
 facet normal 0.110857 0.0104693 -0.993781
  outer loop
   vertex -59.1524  5.08963  27.4488
   vertex -58.0909 -1.30325  27.4999
   vertex -58.5713 -1.34528  27.4459
  endloop
 endfacet
 facet normal  0.34041 0.0311746 -0.93976
  outer loop
   vertex -59.1524  5.08963  27.4488
   vertex -58.5713 -1.34528  27.4459
   vertex -59.6086  5.04753  27.2822
  endloop
 endfacet
 facet normal   0.3459 0.0321177 -0.937722
  outer loop
   vertex -59.6086  5.04753  27.2822
   vertex -58.5713 -1.34528  27.4459
   vertex -59.0245 -1.38493  27.2773
  endloop
 endfacet
 facet normal 0.556714 0.0511789 -0.829126
  outer loop
   vertex -59.6086  5.04753  27.2822
   vertex -59.0245 -1.38493  27.2773
   vertex -60.0112  5.01038  27.0096
  endloop
 endfacet
 facet normal 0.560581 0.0518866 -0.826473
  outer loop
   vertex -60.0112  5.01038  27.0096
   vertex -59.0245 -1.38493  27.2773
   vertex  -59.424 -1.41988  27.0042
  endloop
 endfacet
 facet normal 0.739935 0.0681303 -0.66922
  outer loop
   vertex -60.0112  5.01038  27.0096
   vertex  -59.424 -1.41988  27.0042
   vertex -60.3361  4.98039  26.6473
  endloop
 endfacet
 facet normal 0.742272 0.0686107 -0.666577
  outer loop
   vertex -60.3361  4.98039  26.6473
   vertex  -59.424 -1.41988  27.0042
   vertex -59.7462 -1.44807  26.6425
  endloop
 endfacet
 facet normal 0.879182 0.0810245 -0.469546
  outer loop
   vertex -60.3361  4.98039  26.6473
   vertex -59.7462 -1.44807  26.6425
   vertex  -60.564  4.95936  26.2168
  endloop
 endfacet
 facet normal 0.880271 0.0813025 -0.467453
  outer loop
   vertex  -60.564  4.95936  26.2168
   vertex -59.7462 -1.44807  26.6425
   vertex -59.9722 -1.46784  26.2135
  endloop
 endfacet
 facet normal 0.966187 0.089098 -0.24196
  outer loop
   vertex  -60.564  4.95936  26.2168
   vertex -59.9722 -1.46784  26.2135
   vertex -60.6815  4.94852  25.7438
  endloop
 endfacet
 facet normal 0.966463 0.0892124 -0.240813
  outer loop
   vertex -60.6815  4.94852  25.7438
   vertex -59.9722 -1.46784  26.2135
   vertex -60.0886 -1.47802  25.7426
  endloop
 endfacet
 facet normal 0.995771 0.0918725        0
  outer loop
   vertex -60.6815  4.94852  25.7438
   vertex -60.0886 -1.47802  25.7426
   vertex -60.0886 -1.47802  25.2574
  endloop
 endfacet
 facet normal 0.995771 0.0918725        0
  outer loop
   vertex -60.6815  4.94852  25.7438
   vertex -60.0886 -1.47802  25.2574
   vertex -60.6815  4.94852  25.2562
  endloop
 endfacet
 facet normal 0.966463 0.0892124 0.240813
  outer loop
   vertex -60.6815  4.94852  25.2562
   vertex -60.0886 -1.47802  25.2574
   vertex -59.9722 -1.46784  24.7865
  endloop
 endfacet
 facet normal 0.966187 0.089098  0.24196
  outer loop
   vertex -60.6815  4.94852  25.2562
   vertex -59.9722 -1.46784  24.7865
   vertex  -60.564  4.95936  24.7832
  endloop
 endfacet
 facet normal 0.880271 0.0813025 0.467453
  outer loop
   vertex  -60.564  4.95936  24.7832
   vertex -59.9722 -1.46784  24.7865
   vertex -59.7462 -1.44807  24.3575
  endloop
 endfacet
 facet normal 0.879182 0.0810245 0.469546
  outer loop
   vertex  -60.564  4.95936  24.7832
   vertex -59.7462 -1.44807  24.3575
   vertex -60.3361  4.98039  24.3527
  endloop
 endfacet
 facet normal 0.742272 0.0686107 0.666577
  outer loop
   vertex -60.3361  4.98039  24.3527
   vertex -59.7462 -1.44807  24.3575
   vertex  -59.424 -1.41988  23.9958
  endloop
 endfacet
 facet normal 0.739935 0.0681303  0.66922
  outer loop
   vertex -60.3361  4.98039  24.3527
   vertex  -59.424 -1.41988  23.9958
   vertex -60.0112  5.01038  23.9904
  endloop
 endfacet
 facet normal 0.560581 0.0518866 0.826473
  outer loop
   vertex -60.0112  5.01038  23.9904
   vertex  -59.424 -1.41988  23.9958
   vertex -59.0245 -1.38493  23.7227
  endloop
 endfacet
 facet normal 0.556717 0.0511794 0.829124
  outer loop
   vertex -60.0112  5.01038  23.9904
   vertex -59.0245 -1.38493  23.7227
   vertex -59.6086  5.04753  23.7178
  endloop
 endfacet
 facet normal   0.3459 0.032118 0.937722
  outer loop
   vertex -59.6086  5.04753  23.7178
   vertex -59.0245 -1.38493  23.7227
   vertex -58.5713 -1.34528  23.5541
  endloop
 endfacet
 facet normal 0.340406 0.0311743 0.939762
  outer loop
   vertex -59.6086  5.04753  23.7178
   vertex -58.5713 -1.34528  23.5541
   vertex -59.1524  5.08963  23.5512
  endloop
 endfacet
 facet normal 0.110857 0.0104693 0.993781
  outer loop
   vertex -59.1524  5.08963  23.5512
   vertex -58.5713 -1.34528  23.5541
   vertex -58.0909 -1.30325  23.5001
  endloop
 endfacet
 facet normal 0.103872 0.00930338 0.994547
  outer loop
   vertex -59.1524  5.08963  23.5512
   vertex -58.0909 -1.30325  23.5001
   vertex -58.6695  5.13419  23.5003
  endloop
 endfacet
 facet normal 0.0918939 -0.995769 1.26336e-06
  outer loop
   vertex -58.6695  5.13419  23.5003
   vertex -59.1781  5.08726   23.576
   vertex -59.1524  5.08963  23.5512
  endloop
 endfacet
 facet normal 0.0918965 -0.995769 3.96105e-06
  outer loop
   vertex -59.1524  5.08963  23.5512
   vertex -59.1781  5.08726   23.576
   vertex -59.6086  5.04753  23.7178
  endloop
 endfacet
 facet normal 0.0918972 -0.995769 6.15543e-06
  outer loop
   vertex -59.6086  5.04753  23.7178
   vertex -59.1781  5.08726   23.576
   vertex -59.6504  5.04368  23.7799
  endloop
 endfacet
 facet normal 0.0919003 -0.995768 8.30045e-06
  outer loop
   vertex -59.6086  5.04753  23.7178
   vertex -59.6504  5.04368  23.7799
   vertex -60.0112  5.01038  23.9904
  endloop
 endfacet
 facet normal 0.0918975 -0.995768 3.43719e-06
  outer loop
   vertex -60.0112  5.01038  23.9904
   vertex -59.6504  5.04368  23.7799
   vertex -60.0549  5.00634  24.0984
  endloop
 endfacet
 facet normal 0.0919015 -0.995768 5.05572e-06
  outer loop
   vertex -60.0112  5.01038  23.9904
   vertex -60.0549  5.00634  24.0984
   vertex -60.3361  4.98039  24.3527
  endloop
 endfacet
 facet normal 0.0919023 -0.995768 5.92069e-06
  outer loop
   vertex -60.3361  4.98039  24.3527
   vertex -60.0549  5.00634  24.0984
   vertex -60.3649  4.97774  24.5102
  endloop
 endfacet
 facet normal 0.0919015 -0.995768 5.77031e-06
  outer loop
   vertex -60.3361  4.98039  24.3527
   vertex -60.3649  4.97774  24.5102
   vertex  -60.564  4.95936  24.7832
  endloop
 endfacet
 facet normal 0.0918903 -0.995769 -2.40172e-06
  outer loop
   vertex  -60.564  4.95936  24.7832
   vertex -60.3649  4.97774  24.5102
   vertex -60.5595  4.95978  24.9881
  endloop
 endfacet
 facet normal 0.0918905 -0.995769 -2.40611e-06
  outer loop
   vertex  -60.564  4.95936  24.7832
   vertex -60.5595  4.95978  24.9881
   vertex -60.6815  4.94852  25.2562
  endloop
 endfacet
 facet normal 0.091896 -0.995769 1.07628e-07
  outer loop
   vertex -60.6815  4.94852  25.2562
   vertex -60.5595  4.95978  24.9881
   vertex -60.6258  4.95365     25.5
  endloop
 endfacet
 facet normal 0.0918965 -0.995769        0
  outer loop
   vertex -60.6815  4.94852  25.2562
   vertex -60.6258  4.95365     25.5
   vertex -60.6815  4.94852  25.7438
  endloop
 endfacet
 facet normal 0.091896 -0.995769 -1.07628e-07
  outer loop
   vertex -60.6815  4.94852  25.7438
   vertex -60.6258  4.95365     25.5
   vertex -60.5595  4.95978  26.0119
  endloop
 endfacet
 facet normal 0.0918905 -0.995769 2.40611e-06
  outer loop
   vertex -60.6815  4.94852  25.7438
   vertex -60.5595  4.95978  26.0119
   vertex  -60.564  4.95936  26.2168
  endloop
 endfacet
 facet normal 0.0918903 -0.995769 2.40172e-06
  outer loop
   vertex  -60.564  4.95936  26.2168
   vertex -60.5595  4.95978  26.0119
   vertex -60.3649  4.97774  26.4898
  endloop
 endfacet
 facet normal 0.0919015 -0.995768 -5.77031e-06
  outer loop
   vertex  -60.564  4.95936  26.2168
   vertex -60.3649  4.97774  26.4898
   vertex -60.3361  4.98039  26.6473
  endloop
 endfacet
 facet normal 0.0919023 -0.995768 -5.92069e-06
  outer loop
   vertex -60.3361  4.98039  26.6473
   vertex -60.3649  4.97774  26.4898
   vertex -60.0549  5.00634  26.9016
  endloop
 endfacet
 facet normal 0.0919015 -0.995768 -5.05572e-06
  outer loop
   vertex -60.3361  4.98039  26.6473
   vertex -60.0549  5.00634  26.9016
   vertex -60.0112  5.01038  27.0096
  endloop
 endfacet
 facet normal 0.0918975 -0.995768 -3.43719e-06
  outer loop
   vertex -60.0112  5.01038  27.0096
   vertex -60.0549  5.00634  26.9016
   vertex -59.6504  5.04368  27.2201
  endloop
 endfacet
 facet normal 0.0919003 -0.995768 -8.30087e-06
  outer loop
   vertex -60.0112  5.01038  27.0096
   vertex -59.6504  5.04368  27.2201
   vertex -59.6086  5.04753  27.2822
  endloop
 endfacet
 facet normal 0.0918972 -0.995769 -6.1557e-06
  outer loop
   vertex -59.6086  5.04753  27.2822
   vertex -59.6504  5.04368  27.2201
   vertex -59.1781  5.08726   27.424
  endloop
 endfacet
 facet normal 0.0918965 -0.995769 -3.96108e-06
  outer loop
   vertex -59.6086  5.04753  27.2822
   vertex -59.1781  5.08726   27.424
   vertex -59.1524  5.08963  27.4488
  endloop
 endfacet
 facet normal 0.0918939 -0.995769 -1.26336e-06
  outer loop
   vertex -59.1524  5.08963  27.4488
   vertex -59.1781  5.08726   27.424
   vertex -58.6695  5.13419  27.4997
  endloop
 endfacet
 facet normal -0.98725 -0.0911088 -0.130526
  outer loop
   vertex   59.535  9.27509  26.0176
   vertex  58.9157  15.9855  26.0176
   vertex  59.6029  9.28135     25.5
  endloop
 endfacet
 facet normal -0.987249 -0.0911082 -0.130533
  outer loop
   vertex  59.6029  9.28135     25.5
   vertex  58.9157  15.9855  26.0176
   vertex  58.9836  15.9918     25.5
  endloop
 endfacet
 facet normal -0.98725 -0.0911083 0.130526
  outer loop
   vertex  59.6029  9.28135     25.5
   vertex  58.9836  15.9918     25.5
   vertex   59.535  9.27509  24.9824
  endloop
 endfacet
 facet normal -0.987249 -0.0911087 0.130533
  outer loop
   vertex   59.535  9.27509  24.9824
   vertex  58.9836  15.9918     25.5
   vertex  58.9157  15.9855  24.9824
  endloop
 endfacet
 facet normal -0.919971 -0.0848999 0.382683
  outer loop
   vertex   59.535  9.27509  24.9824
   vertex  58.9157  15.9855  24.9824
   vertex  59.3361  9.25673     24.5
  endloop
 endfacet
 facet normal -0.919971 -0.0848999 0.382683
  outer loop
   vertex  59.3361  9.25673     24.5
   vertex  58.9157  15.9855  24.9824
   vertex  58.7168  15.9672     24.5
  endloop
 endfacet
 facet normal -0.789995 -0.072905 0.608764
  outer loop
   vertex  59.3361  9.25673     24.5
   vertex  58.7168  15.9672     24.5
   vertex  59.0196  9.22752  24.0858
  endloop
 endfacet
 facet normal -0.789998 -0.0729049 0.608759
  outer loop
   vertex  59.0196  9.22752  24.0858
   vertex  58.7168  15.9672     24.5
   vertex  58.4003   15.938  24.0858
  endloop
 endfacet
 facet normal -0.606188 -0.055942 0.793352
  outer loop
   vertex  59.0196  9.22752  24.0858
   vertex  58.4003   15.938  24.0858
   vertex  58.6071  9.18946  23.7679
  endloop
 endfacet
 facet normal -0.606188 -0.055942 0.793352
  outer loop
   vertex  58.6071  9.18946  23.7679
   vertex  58.4003   15.938  24.0858
   vertex  57.9878  15.8999  23.7679
  endloop
 endfacet
 facet normal -0.381064 -0.0351665 0.923879
  outer loop
   vertex  58.6071  9.18946  23.7679
   vertex  57.9878  15.8999  23.7679
   vertex  58.1268  9.14513  23.5681
  endloop
 endfacet
 facet normal -0.381062 -0.0351665 0.923881
  outer loop
   vertex  58.1268  9.14513  23.5681
   vertex  57.9878  15.8999  23.7679
   vertex  57.5075  15.8556  23.5681
  endloop
 endfacet
 facet normal -0.129972 -0.0119945 0.991445
  outer loop
   vertex  58.1268  9.14513  23.5681
   vertex  57.5075  15.8556  23.5681
   vertex  57.6113  9.09756     23.5
  endloop
 endfacet
 facet normal -0.129973 -0.0119946 0.991445
  outer loop
   vertex  57.6113  9.09756     23.5
   vertex  57.5075  15.8556  23.5681
   vertex  56.9921   15.808     23.5
  endloop
 endfacet
 facet normal 0.129972 0.0119945 0.991445
  outer loop
   vertex  57.6113  9.09756     23.5
   vertex  56.9921   15.808     23.5
   vertex  57.0959  9.04999  23.5681
  endloop
 endfacet
 facet normal 0.129973 0.0119945 0.991445
  outer loop
   vertex  57.0959  9.04999  23.5681
   vertex  56.9921   15.808     23.5
   vertex  56.4766  15.7605  23.5681
  endloop
 endfacet
 facet normal 0.381064 0.0351663  0.92388
  outer loop
   vertex  57.0959  9.04999  23.5681
   vertex  56.4766  15.7605  23.5681
   vertex  56.6156  9.00567  23.7679
  endloop
 endfacet
 facet normal 0.381062 0.0351662 0.923881
  outer loop
   vertex  56.6156  9.00567  23.7679
   vertex  56.4766  15.7605  23.5681
   vertex  55.9963  15.7161  23.7679
  endloop
 endfacet
 facet normal 0.606188 0.055942 0.793352
  outer loop
   vertex  56.6156  9.00567  23.7679
   vertex  55.9963  15.7161  23.7679
   vertex  56.2031   8.9676  24.0858
  endloop
 endfacet
 facet normal 0.606188 0.055942 0.793352
  outer loop
   vertex  56.2031   8.9676  24.0858
   vertex  55.9963  15.7161  23.7679
   vertex  55.5838  15.6781  24.0858
  endloop
 endfacet
 facet normal 0.789998 0.0729049 0.608759
  outer loop
   vertex  56.2031   8.9676  24.0858
   vertex  55.5838  15.6781  24.0858
   vertex  55.8866   8.9384     24.5
  endloop
 endfacet
 facet normal 0.789995 0.072905 0.608764
  outer loop
   vertex  55.8866   8.9384     24.5
   vertex  55.5838  15.6781  24.0858
   vertex  55.2673  15.6489     24.5
  endloop
 endfacet
 facet normal  0.91997 0.0848999 0.382683
  outer loop
   vertex  55.8866   8.9384     24.5
   vertex  55.2673  15.6489     24.5
   vertex  55.6877  8.92004  24.9824
  endloop
 endfacet
 facet normal  0.91997 0.0848999 0.382683
  outer loop
   vertex  55.6877  8.92004  24.9824
   vertex  55.2673  15.6489     24.5
   vertex  55.0684  15.6305  24.9824
  endloop
 endfacet
 facet normal  0.98725 0.0911088 0.130526
  outer loop
   vertex  55.6877  8.92004  24.9824
   vertex  55.0684  15.6305  24.9824
   vertex  55.6198  8.91377     25.5
  endloop
 endfacet
 facet normal  0.98725 0.0911088 0.130526
  outer loop
   vertex  55.6198  8.91377     25.5
   vertex  55.0684  15.6305  24.9824
   vertex  55.0005  15.6242     25.5
  endloop
 endfacet
 facet normal  0.98725 0.0911088 -0.130526
  outer loop
   vertex  55.6198  8.91377     25.5
   vertex  55.0005  15.6242     25.5
   vertex  55.6877  8.92004  26.0176
  endloop
 endfacet
 facet normal  0.98725 0.0911088 -0.130526
  outer loop
   vertex  55.6877  8.92004  26.0176
   vertex  55.0005  15.6242     25.5
   vertex  55.0684  15.6305  26.0176
  endloop
 endfacet
 facet normal  0.91997 0.0848999 -0.382683
  outer loop
   vertex  55.6877  8.92004  26.0176
   vertex  55.0684  15.6305  26.0176
   vertex  55.8866   8.9384     26.5
  endloop
 endfacet
 facet normal  0.91997 0.0848999 -0.382683
  outer loop
   vertex  55.8866   8.9384     26.5
   vertex  55.0684  15.6305  26.0176
   vertex  55.2673  15.6489     26.5
  endloop
 endfacet
 facet normal 0.789998 0.0729054 -0.608759
  outer loop
   vertex  55.8866   8.9384     26.5
   vertex  55.2673  15.6489     26.5
   vertex  56.2031   8.9676  26.9142
  endloop
 endfacet
 facet normal 0.789995 0.0729046 -0.608764
  outer loop
   vertex  56.2031   8.9676  26.9142
   vertex  55.2673  15.6489     26.5
   vertex  55.5838  15.6781  26.9142
  endloop
 endfacet
 facet normal 0.606188 0.055942 -0.793352
  outer loop
   vertex  56.2031   8.9676  26.9142
   vertex  55.5838  15.6781  26.9142
   vertex  56.6156  9.00567  27.2321
  endloop
 endfacet
 facet normal 0.606188 0.055942 -0.793352
  outer loop
   vertex  56.6156  9.00567  27.2321
   vertex  55.5838  15.6781  26.9142
   vertex  55.9963  15.7161  27.2321
  endloop
 endfacet
 facet normal 0.381064 0.0351665 -0.92388
  outer loop
   vertex  56.6156  9.00567  27.2321
   vertex  55.9963  15.7161  27.2321
   vertex  57.0959  9.04999  27.4319
  endloop
 endfacet
 facet normal 0.381062 0.035166 -0.923881
  outer loop
   vertex  57.0959  9.04999  27.4319
   vertex  55.9963  15.7161  27.2321
   vertex  56.4766  15.7605  27.4319
  endloop
 endfacet
 facet normal 0.129972 0.0119944 -0.991445
  outer loop
   vertex  57.0959  9.04999  27.4319
   vertex  56.4766  15.7605  27.4319
   vertex  57.6113  9.09756     27.5
  endloop
 endfacet
 facet normal 0.129973 0.0119946 -0.991445
  outer loop
   vertex  57.6113  9.09756     27.5
   vertex  56.4766  15.7605  27.4319
   vertex  56.9921   15.808     27.5
  endloop
 endfacet
 facet normal -0.129972 -0.0119945 -0.991445
  outer loop
   vertex  57.6113  9.09756     27.5
   vertex  56.9921   15.808     27.5
   vertex  58.1268  9.14513  27.4319
  endloop
 endfacet
 facet normal -0.129973 -0.0119946 -0.991445
  outer loop
   vertex  58.1268  9.14513  27.4319
   vertex  56.9921   15.808     27.5
   vertex  57.5075  15.8556  27.4319
  endloop
 endfacet
 facet normal -0.381064 -0.0351667 -0.923879
  outer loop
   vertex  58.1268  9.14513  27.4319
   vertex  57.5075  15.8556  27.4319
   vertex  58.6071  9.18946  27.2321
  endloop
 endfacet
 facet normal -0.381062 -0.0351662 -0.923881
  outer loop
   vertex  58.6071  9.18946  27.2321
   vertex  57.5075  15.8556  27.4319
   vertex  57.9878  15.8999  27.2321
  endloop
 endfacet
 facet normal -0.606188 -0.055942 -0.793352
  outer loop
   vertex  58.6071  9.18946  27.2321
   vertex  57.9878  15.8999  27.2321
   vertex  59.0196  9.22752  26.9142
  endloop
 endfacet
 facet normal -0.606188 -0.055942 -0.793352
  outer loop
   vertex  59.0196  9.22752  26.9142
   vertex  57.9878  15.8999  27.2321
   vertex  58.4003   15.938  26.9142
  endloop
 endfacet
 facet normal -0.789995 -0.0729046 -0.608764
  outer loop
   vertex  59.0196  9.22752  26.9142
   vertex  58.4003   15.938  26.9142
   vertex  59.3361  9.25673     26.5
  endloop
 endfacet
 facet normal -0.789998 -0.0729054 -0.608759
  outer loop
   vertex  59.3361  9.25673     26.5
   vertex  58.4003   15.938  26.9142
   vertex  58.7168  15.9672     26.5
  endloop
 endfacet
 facet normal -0.919971 -0.0848999 -0.382683
  outer loop
   vertex  59.3361  9.25673     26.5
   vertex  58.7168  15.9672     26.5
   vertex   59.535  9.27509  26.0176
  endloop
 endfacet
 facet normal -0.919971 -0.0848999 -0.382683
  outer loop
   vertex   59.535  9.27509  26.0176
   vertex  58.7168  15.9672     26.5
   vertex  58.9157  15.9855  26.0176
  endloop
 endfacet
 facet normal -0.907311 0.420461        0
  outer loop
   vertex -51.2959  6.05595       33
   vertex -35.2975   40.579       33
   vertex -51.2959  6.05595       18
  endloop
 endfacet
 facet normal -0.907311 0.420461        0
  outer loop
   vertex -51.2959  6.05595       18
   vertex -35.2975   40.579       33
   vertex -35.2975   40.579       18
  endloop
 endfacet
 facet normal 0.907311 -0.420461        0
  outer loop
   vertex -50.5196 -0.640851       18
   vertex -32.4288  38.3972       18
   vertex -50.5196 -0.640851       33
  endloop
 endfacet
 facet normal 0.907311 -0.420461        0
  outer loop
   vertex -50.5196 -0.640851       33
   vertex -32.4288  38.3972       18
   vertex -32.4288  38.3972       33
  endloop
 endfacet
 facet normal -0.817785 -0.575524       -0
  outer loop
   vertex  49.7241  8.36969       33
   vertex  24.9615  43.5558       33
   vertex  49.7241  8.36969       18
  endloop
 endfacet
 facet normal -0.817785 -0.575524        0
  outer loop
   vertex  49.7241  8.36969       18
   vertex  24.9615  43.5558       33
   vertex  24.9615  43.5558       18
  endloop
 endfacet
 facet normal -0.369309 -0.929307       -0
  outer loop
   vertex  17.3158  47.0989       33
   vertex  17.3158  47.0989       18
   vertex  19.9289  46.0605       33
  endloop
 endfacet
 facet normal -0.369309 -0.929307       -0
  outer loop
   vertex  19.9289  46.0605       33
   vertex  17.3158  47.0989       18
   vertex  19.9289  46.0605       18
  endloop
 endfacet
 facet normal -0.420461 -0.907311       -0
  outer loop
   vertex  19.9289  46.0605       33
   vertex  19.9289  46.0605       18
   vertex  22.4801  44.8782       18
  endloop
 endfacet
 facet normal -0.470309 -0.882502        0
  outer loop
   vertex  24.9615  43.5558       18
   vertex  24.9615  43.5558       33
   vertex  22.4801  44.8782       18
  endloop
 endfacet
 facet normal -0.470309 -0.882502        0
  outer loop
   vertex  22.4801  44.8782       18
   vertex  24.9615  43.5558       33
   vertex  22.4801  44.8782       33
  endloop
 endfacet
 facet normal -0.420461 -0.907311        0
  outer loop
   vertex  22.4801  44.8782       18
   vertex  22.4801  44.8782       33
   vertex  19.9289  46.0605       33
  endloop
 endfacet
 facet normal 0.0895254 -0.995985        0
  outer loop
   vertex -25.5375   43.247       18
   vertex  17.3158  47.0989       18
   vertex -25.5375   43.247       33
  endloop
 endfacet
 facet normal 0.0895254 -0.995985        0
  outer loop
   vertex -25.5375   43.247       33
   vertex  17.3158  47.0989       18
   vertex  17.3158  47.0989       33
  endloop
 endfacet
 facet normal 0.620148 -0.784485        0
  outer loop
   vertex -32.4288  38.3972       33
   vertex -32.4288  38.3972       18
   vertex  -30.223  40.1409       33
  endloop
 endfacet
 facet normal 0.620148 -0.784485        0
  outer loop
   vertex  -30.223  40.1409       33
   vertex -32.4288  38.3972       18
   vertex  -30.223  40.1409       18
  endloop
 endfacet
 facet normal 0.575524 -0.817785        0
  outer loop
   vertex  -30.223  40.1409       33
   vertex  -30.223  40.1409       18
   vertex -27.9235  41.7592       18
  endloop
 endfacet
 facet normal 0.529114 -0.848551        0
  outer loop
   vertex -25.5375   43.247       18
   vertex -25.5375   43.247       33
   vertex -27.9235  41.7592       18
  endloop
 endfacet
 facet normal 0.529114 -0.848551        0
  outer loop
   vertex -27.9235  41.7592       18
   vertex -25.5375   43.247       33
   vertex -27.9235  41.7592       33
  endloop
 endfacet
 facet normal 0.575524 -0.817785        0
  outer loop
   vertex -27.9235  41.7592       18
   vertex -27.9235  41.7592       33
   vertex  -30.223  40.1409       33
  endloop
 endfacet
 facet normal -0.520713 0.853732        0
  outer loop
   vertex -26.6229  46.6837       33
   vertex -26.6229  46.6837       18
   vertex -29.6459    44.84       33
  endloop
 endfacet
 facet normal -0.520713 0.853732        0
  outer loop
   vertex -29.6459    44.84       33
   vertex -26.6229  46.6837       18
   vertex -29.6459    44.84       18
  endloop
 endfacet
 facet normal -0.575524 0.817785        0
  outer loop
   vertex -29.6459    44.84       33
   vertex -29.6459    44.84       18
   vertex -32.5415  42.8021       18
  endloop
 endfacet
 facet normal -0.627862 0.778325        0
  outer loop
   vertex -35.2975   40.579       18
   vertex -35.2975   40.579       33
   vertex -32.5415  42.8021       18
  endloop
 endfacet
 facet normal -0.627862 0.778325        0
  outer loop
   vertex -32.5415  42.8021       18
   vertex -35.2975   40.579       33
   vertex -32.5415  42.8021       33
  endloop
 endfacet
 facet normal -0.575524 0.817785        0
  outer loop
   vertex -32.5415  42.8021       18
   vertex -32.5415  42.8021       33
   vertex -29.6459    44.84       33
  endloop
 endfacet
 facet normal -0.0895253 0.995985        0
  outer loop
   vertex   17.771  50.6741       18
   vertex -26.6229  46.6837       18
   vertex   17.771  50.6741       33
  endloop
 endfacet
 facet normal -0.0895253 0.995985        0
  outer loop
   vertex   17.771  50.6741       33
   vertex -26.6229  46.6837       18
   vertex -26.6229  46.6837       33
  endloop
 endfacet
 facet normal 0.478998 0.877816        0
  outer loop
   vertex  27.3951  46.2142       33
   vertex  27.3951  46.2142       18
   vertex  24.2869  47.9102       33
  endloop
 endfacet
 facet normal 0.478998 0.877816        0
  outer loop
   vertex  24.2869  47.9102       33
   vertex  27.3951  46.2142       18
   vertex  24.2869  47.9102       18
  endloop
 endfacet
 facet normal 0.420461 0.907311        0
  outer loop
   vertex  24.2869  47.9102       33
   vertex  24.2869  47.9102       18
   vertex  21.0742   49.399       18
  endloop
 endfacet
 facet normal 0.360118 0.932907       -0
  outer loop
   vertex   17.771  50.6741       18
   vertex   17.771  50.6741       33
   vertex  21.0742   49.399       18
  endloop
 endfacet
 facet normal 0.360118 0.932907       -0
  outer loop
   vertex  21.0742   49.399       18
   vertex   17.771  50.6741       33
   vertex  21.0742   49.399       33
  endloop
 endfacet
 facet normal 0.420461 0.907311       -0
  outer loop
   vertex  21.0742   49.399       18
   vertex  21.0742   49.399       33
   vertex  24.2869  47.9102       33
  endloop
 endfacet
 facet normal 0.817785 0.575524       -0
  outer loop
   vertex  49.2937  15.0976       18
   vertex  27.3951  46.2142       18
   vertex  49.2937  15.0976       33
  endloop
 endfacet
 facet normal 0.817785 0.575524        0
  outer loop
   vertex  49.2937  15.0976       33
   vertex  27.3951  46.2142       18
   vertex  27.3951  46.2142       33
  endloop
 endfacet
 facet normal        0       -0       -1
  outer loop
   vertex  60.7074  16.1509       18
   vertex  61.3266  9.44043       18
   vertex  49.2937  15.0976       18
  endloop
 endfacet
 facet normal        0        0       -1
  outer loop
   vertex  49.2937  15.0976       18
   vertex  61.3266  9.44043       18
   vertex  49.7241  8.36969       18
  endloop
 endfacet
 facet normal       -0       -0       -1
  outer loop
   vertex  49.2937  15.0976       18
   vertex  49.7241  8.36969       18
   vertex  24.9615  43.5558       18
  endloop
 endfacet
 facet normal        0        0       -1
  outer loop
   vertex  49.2937  15.0976       18
   vertex  24.9615  43.5558       18
   vertex  27.3951  46.2142       18
  endloop
 endfacet
 facet normal        0        0       -1
  outer loop
   vertex  27.3951  46.2142       18
   vertex  24.9615  43.5558       18
   vertex  22.4801  44.8782       18
  endloop
 endfacet
 facet normal       -0        0       -1
  outer loop
   vertex  27.3951  46.2142       18
   vertex  22.4801  44.8782       18
   vertex  24.2869  47.9102       18
  endloop
 endfacet
 facet normal        0        0       -1
  outer loop
   vertex  24.2869  47.9102       18
   vertex  22.4801  44.8782       18
   vertex  19.9289  46.0605       18
  endloop
 endfacet
 facet normal        0        0       -1
  outer loop
   vertex  24.2869  47.9102       18
   vertex  19.9289  46.0605       18
   vertex  17.3158  47.0989       18
  endloop
 endfacet
 facet normal        0        0       -1
  outer loop
   vertex -25.5375   43.247       18
   vertex -26.6229  46.6837       18
   vertex  17.3158  47.0989       18
  endloop
 endfacet
 facet normal       -0        0       -1
  outer loop
   vertex  17.3158  47.0989       18
   vertex -26.6229  46.6837       18
   vertex   17.771  50.6741       18
  endloop
 endfacet
 facet normal        0        0       -1
  outer loop
   vertex  17.3158  47.0989       18
   vertex   17.771  50.6741       18
   vertex  21.0742   49.399       18
  endloop
 endfacet
 facet normal        0        0       -1
  outer loop
   vertex -27.9235  41.7592       18
   vertex -32.5415  42.8021       18
   vertex -25.5375   43.247       18
  endloop
 endfacet
 facet normal       -0        0       -1
  outer loop
   vertex -25.5375   43.247       18
   vertex -32.5415  42.8021       18
   vertex -29.6459    44.84       18
  endloop
 endfacet
 facet normal        0        0       -1
  outer loop
   vertex -25.5375   43.247       18
   vertex -29.6459    44.84       18
   vertex -26.6229  46.6837       18
  endloop
 endfacet
 facet normal       -0        0       -1
  outer loop
   vertex -27.9235  41.7592       18
   vertex  -30.223  40.1409       18
   vertex -32.5415  42.8021       18
  endloop
 endfacet
 facet normal        0       -0       -1
  outer loop
   vertex -32.5415  42.8021       18
   vertex  -30.223  40.1409       18
   vertex -35.2975   40.579       18
  endloop
 endfacet
 facet normal        0        0       -1
  outer loop
   vertex -35.2975   40.579       18
   vertex  -30.223  40.1409       18
   vertex -32.4288  38.3972       18
  endloop
 endfacet
 facet normal        0       -0       -1
  outer loop
   vertex -35.2975   40.579       18
   vertex -32.4288  38.3972       18
   vertex -51.2959  6.05595       18
  endloop
 endfacet
 facet normal        0        0       -1
  outer loop
   vertex -51.2959  6.05595       18
   vertex -32.4288  38.3972       18
   vertex -50.5196 -0.640851       18
  endloop
 endfacet
 facet normal        0       -0       -1
  outer loop
   vertex -51.2959  6.05595       18
   vertex -50.5196 -0.640851       18
   vertex -62.7145  5.05695       18
  endloop
 endfacet
 facet normal        0        0       -1
  outer loop
   vertex -62.7145  5.05695       18
   vertex -50.5196 -0.640851       18
   vertex -62.1272 -1.65638       18
  endloop
 endfacet
 facet normal        0       -0       -1
  outer loop
   vertex  21.0742   49.399       18
   vertex  24.2869  47.9102       18
   vertex  17.3158  47.0989       18
  endloop
 endfacet
endsolid 1 written by HOOPS Exchange
